# xmcd
#
# Track frame offsets:
#	150
#	13442
#	27040
#	41217
#	55124
#	64226
#	80081
#	102060
#	120806
#	133295
#	148241
#	164115
#	177832
#	192395
#	204927
#	216197
#	234723
#	245929
#	260480
#	277469
#
# Disc length: 3884 seconds
#
# Revision: 2
# Processed by: cddbd v1.5.2PL0 Copyright (c) Steve Scherf et al.
# Submitted via: audiograbber 1.83.01
#
DISCID=410f2a14
DTITLE=Freddy Breck - Sinfonie D'Amour - CD2
DYEAR=2006
DGENRE=
TTITLE0=Rote Rosen - Hitmix 2006
TTITLE1=Du schönes Kroatien
TTITLE2=Gondola Romantica
TTITLE3=My Isabelle
TTITLE4=Bianca
TTITLE5=Wenn die Gondeln Rosen tragen
TTITLE6=Kaiser Maximilian Jodler
TTITLE7=There You Were
TTITLE8=Square Dance
TTITLE9=Die Zeit wird weitergehn
TTITLE10=Mit Dir mal um die ganze Welt
TTITLE11=Ik Droom Nog Iedere Nacht Van Jou
TTITLE12=Carola
TTITLE13=Years Of Love
TTITLE14=La Paloma
TTITLE15=Mein leises Du
TTITLE16=Always
TTITLE17=Our Song
TTITLE18=Traumstraßen
TTITLE19=Hoffnung (Ave Maria)
EXTD=
EXTT0=
EXTT1=
EXTT2=
EXTT3=
EXTT4=
EXTT5=
EXTT6=
EXTT7=
EXTT8=
EXTT9=
EXTT10=
EXTT11=
EXTT12=
EXTT13=
EXTT14=
EXTT15=
EXTT16=
EXTT17=
EXTT18=
EXTT19=
PLAYORDER=
